<?xml version="1.0" encoding="UTF-8"?>
<svg version="1.1" xmlns="http://www.w3.org/2000/svg" width="1080" height="360">
<path d="M0 0 C3.21549224 1.21850232 5.64745651 2.87666355 8.41015625 4.921875 C9.38597656 5.63214844 10.36179687 6.34242187 11.3671875 7.07421875 C12.10324219 7.70457031 12.83929688 8.33492187 13.59765625 8.984375 C13.59765625 9.644375 13.59765625 10.304375 13.59765625 10.984375 C14.1184375 11.2215625 14.63921875 11.45875 15.17578125 11.703125 C18.39010742 13.40360723 21.35630468 15.42658809 24.34765625 17.484375 C24.94964844 17.88785156 25.55164063 18.29132812 26.171875 18.70703125 C27.68487827 19.74657771 29.14637788 20.86026343 30.59765625 21.984375 C30.59765625 22.644375 30.59765625 23.304375 30.59765625 23.984375 C31.25765625 24.17 31.91765625 24.355625 32.59765625 24.546875 C36.17129674 26.2592444 38.61679737 28.5158631 41.52734375 31.171875 C43.47501063 32.87700223 45.45942135 34.342529 47.59765625 35.796875 C49.08265625 36.8796875 49.08265625 36.8796875 50.59765625 37.984375 C50.59765625 38.644375 50.59765625 39.304375 50.59765625 39.984375 C51.58765625 39.984375 52.57765625 39.984375 53.59765625 39.984375 C53.59765625 40.644375 53.59765625 41.304375 53.59765625 41.984375 C54.149375 42.23703125 54.70109375 42.4896875 55.26953125 42.75 C60.0475857 45.28333088 64.25916664 48.77377334 68.59765625 51.984375 C69.42136719 52.57476562 70.24507812 53.16515625 71.09375 53.7734375 C71.81691406 54.29679687 72.54007813 54.82015625 73.28515625 55.359375 C74.25001953 56.05160156 74.25001953 56.05160156 75.234375 56.7578125 C75.68425781 57.16257813 76.13414062 57.56734375 76.59765625 57.984375 C76.59765625 58.644375 76.59765625 59.304375 76.59765625 59.984375 C77.32339844 60.2421875 78.04914063 60.5 78.796875 60.765625 C81.71813292 62.03679999 83.90638274 63.52453902 86.41015625 65.484375 C87.20035156 66.0928125 87.99054688 66.70125 88.8046875 67.328125 C89.39636719 67.8746875 89.98804688 68.42125 90.59765625 68.984375 C90.59765625 69.644375 90.59765625 70.304375 90.59765625 70.984375 C91.58765625 70.984375 92.57765625 70.984375 93.59765625 70.984375 C93.59765625 71.644375 93.59765625 72.304375 93.59765625 72.984375 C94.15453125 73.2525 94.71140625 73.520625 95.28515625 73.796875 C97.80990959 75.09336996 100.23480109 76.40913823 102.59765625 77.984375 C102.59765625 78.644375 102.59765625 79.304375 102.59765625 79.984375 C103.91765625 80.644375 105.23765625 81.304375 106.59765625 81.984375 C106.57445312 82.88800781 106.55125 83.79164062 106.52734375 84.72265625 C106.50929688 85.90214844 106.49125 87.08164063 106.47265625 88.296875 C106.44945312 89.46863281 106.42625 90.64039062 106.40234375 91.84765625 C106.34445007 95.14831161 106.34445007 95.14831161 108.59765625 97.984375 C108.31349647 101.62016295 106.59652381 103.33575666 104.03515625 105.796875 C102.95621094 106.83521484 102.95621094 106.83521484 101.85546875 107.89453125 C97.64408782 111.79260875 93.38989024 115.59946692 88.84765625 119.109375 C86.37244737 121.17204907 84.5981046 123.46768191 82.59765625 125.984375 C79.08041487 128.984375 79.08041487 128.984375 76.59765625 128.984375 C76.26765625 129.974375 75.93765625 130.964375 75.59765625 131.984375 C74.93765625 131.984375 74.27765625 131.984375 73.59765625 131.984375 C73.26765625 132.974375 72.93765625 133.964375 72.59765625 134.984375 C71.93765625 134.984375 71.27765625 134.984375 70.59765625 134.984375 C70.59765625 135.644375 70.59765625 136.304375 70.59765625 136.984375 C68.75433125 138.84173547 66.76238463 140.47408271 64.76171875 142.16015625 C63.43987335 143.27441943 62.13715362 144.41257993 60.87109375 145.58984375 C59.34765625 146.984375 59.34765625 146.984375 56.59765625 148.984375 C54.59765625 148.859375 54.59765625 148.859375 52.59765625 147.984375 C49.81172597 146.96350362 49.81172597 146.96350362 46.59765625 146.984375 C44.45437633 148.15496796 42.56039351 149.46496967 40.625 150.953125 C37.79606496 152.39212086 36.60421319 151.95912329 33.59765625 150.984375 C31.11453951 149.84899323 28.70494303 148.67804685 26.28515625 147.421875 C24.85298426 146.69117163 23.42068912 145.96070961 21.98828125 145.23046875 C21.25931641 144.85647949 20.53035156 144.48249023 19.77929688 144.09716797 C17.03849301 142.6991617 14.28195625 141.33432526 11.52441406 139.96972656 C5.80384784 137.13612258 0.1443264 134.21971687 -5.46484375 131.171875 C-12.77490739 127.20892096 -20.27576347 123.67532572 -27.79125977 120.12182617 C-34.25301726 117.05223976 -40.58936909 113.8198593 -46.87890625 110.4140625 C-54.06973501 106.5559063 -61.44276363 103.085044 -68.82617188 99.61328125 C-70.23672852 98.948125 -70.23672852 98.948125 -71.67578125 98.26953125 C-72.93527588 97.67990601 -72.93527588 97.67990601 -74.22021484 97.07836914 C-76.40234375 95.984375 -76.40234375 95.984375 -79.40234375 93.984375 C-79.21671875 92.829375 -79.03109375 91.674375 -78.83984375 90.484375 C-78.27877135 86.12047852 -78.70602189 82.31704435 -79.40234375 77.984375 C-77.91734375 77.489375 -77.91734375 77.489375 -76.40234375 76.984375 C-76.07234375 75.994375 -75.74234375 75.004375 -75.40234375 73.984375 C-74.74234375 73.984375 -74.08234375 73.984375 -73.40234375 73.984375 C-73.07234375 72.994375 -72.74234375 72.004375 -72.40234375 70.984375 C-71.74234375 70.984375 -71.08234375 70.984375 -70.40234375 70.984375 C-70.07234375 69.994375 -69.74234375 69.004375 -69.40234375 67.984375 C-68.74234375 67.984375 -68.08234375 67.984375 -67.40234375 67.984375 C-67.07234375 66.994375 -66.74234375 66.004375 -66.40234375 64.984375 C-65.74234375 64.984375 -65.08234375 64.984375 -64.40234375 64.984375 C-64.07234375 63.994375 -63.74234375 63.004375 -63.40234375 61.984375 C-62.74234375 61.984375 -62.08234375 61.984375 -61.40234375 61.984375 C-61.40234375 61.324375 -61.40234375 60.664375 -61.40234375 59.984375 C-60.74234375 59.984375 -60.08234375 59.984375 -59.40234375 59.984375 C-59.07234375 58.994375 -58.74234375 58.004375 -58.40234375 56.984375 C-57.74234375 56.984375 -57.08234375 56.984375 -56.40234375 56.984375 C-56.07234375 55.994375 -55.74234375 55.004375 -55.40234375 53.984375 C-54.74234375 53.984375 -54.08234375 53.984375 -53.40234375 53.984375 C-53.1501709 53.40550537 -52.89799805 52.82663574 -52.63818359 52.23022461 C-51.25029087 49.70805448 -49.6882254 48.05882595 -47.62890625 46.05078125 C-46.51515625 44.9534668 -46.51515625 44.9534668 -45.37890625 43.83398438 C-44.60289062 43.07923828 -43.826875 42.32449219 -43.02734375 41.546875 C-38.56372654 37.18436321 -34.22355755 32.93437351 -30.40234375 27.984375 C-28.75231547 26.63050564 -27.08490505 25.29759358 -25.40234375 23.984375 C-22.13098482 20.89475823 -19.14455934 17.5902279 -16.15234375 14.234375 C-14.57142667 12.4821919 -12.98803477 10.73223896 -11.40234375 8.984375 C-10.60828125 8.09878906 -9.81421875 7.21320312 -8.99609375 6.30078125 C-8.22265625 5.47449219 -7.44921875 4.64820313 -6.65234375 3.796875 C-5.60820312 2.66185547 -5.60820312 2.66185547 -4.54296875 1.50390625 C-2.40234375 -0.015625 -2.40234375 -0.015625 0 0 Z " fill="#0065FE" transform="translate(187.40234375,20.015625)"/>
<path d="M0 0 C3.04698181 1.36249868 5.95291522 2.95229903 8.875 4.5625 C10.5774358 5.47914575 12.28057192 6.39449193 13.984375 7.30859375 C14.83064453 7.76476074 15.67691406 8.22092773 16.54882812 8.69091797 C20.04640398 10.55884643 23.57684642 12.35538181 27.125 14.125 C27.77001465 14.44670166 28.4150293 14.76840332 29.07958984 15.09985352 C34.56189693 17.81505046 40.09851265 20.41020812 45.640625 23.00048828 C55.59113772 27.66365209 65.40420228 32.57101766 75.0625 37.8125 C84.38632763 42.8660478 94.00694197 47.31592677 103.59033203 51.85009766 C106.41300282 53.19708645 109.21119571 54.58443492 112 56 C111.95875 57.216875 111.9175 58.43375 111.875 59.6875 C111.88756939 63.25092289 112.23839438 65.82910988 114 69 C115.0828125 69.9590625 115.0828125 69.9590625 116.1875 70.9375 C116.785625 71.618125 117.38375 72.29875 118 73 C117.60097207 78.56036753 115.49508744 83.76909399 113.6875 89 C111.23152398 96.22272254 108.92312833 103.43377313 106.921875 110.796875 C105.73847034 114.90870476 104.37034458 118.94734781 103 123 C102.42629116 124.71848574 101.85339604 126.43724332 101.28125 128.15625 C97.71875 138.84375 97.71875 138.84375 96.84765625 141.44140625 C96.28045751 143.15345775 95.7258335 144.86972434 95.18359375 146.58984375 C94.92707031 147.39550781 94.67054688 148.20117188 94.40625 149.03125 C94.18259766 149.74861328 93.95894531 150.46597656 93.72851562 151.20507812 C93 153 93 153 91 155 C88.96166576 153.7260411 86.96147874 152.38938077 85 151 C85 150.34 85 149.68 85 149 C84.11465576 148.82210937 84.11465576 148.82210937 83.21142578 148.640625 C80.91585456 147.97562402 79.53010596 147.15946017 77.6171875 145.75 C77.00746094 145.3065625 76.39773437 144.863125 75.76953125 144.40625 C75.14433594 143.9421875 74.51914063 143.478125 73.875 143 C69.5985238 139.74371459 69.5985238 139.74371459 65 137 C65 136.34 65 135.68 65 135 C64.45601563 134.9175 63.91203125 134.835 63.3515625 134.75 C60.1901223 133.74170013 58.01796309 131.99468912 55.375 130 C51.83101471 127.26818173 51.83101471 127.26818173 48 125 C48 124.34 48 123.68 48 123 C47.01 123 46.02 123 45 123 C45 122.34 45 121.68 45 121 C44.28199219 120.74347656 43.56398437 120.48695313 42.82421875 120.22265625 C39.82859999 118.92579778 37.45241018 117.35053627 34.8125 115.4375 C31.52121677 113.02799361 31.52121677 113.02799361 28 111 C28 110.34 28 109.68 28 109 C27.01 109 26.02 109 25 109 C25 108.34 25 107.68 25 107 C23.95199219 106.63261719 23.95199219 106.63261719 22.8828125 106.2578125 C19.54696799 104.80233563 16.82967205 103.00029042 13.875 100.875 C12.84117188 100.15054688 11.80734375 99.42609375 10.7421875 98.6796875 C4.86489184 92.9363473 4.14219448 84.53138266 2.6875 76.75 C2.25570163 74.51527734 1.82203732 72.2809146 1.38671875 70.046875 C1.04906494 68.31147461 1.04906494 68.31147461 0.70458984 66.54101562 C-0.46178387 60.67924004 -1.73242927 54.84057588 -3 49 C-4.99478223 39.76127919 -6.9451034 30.5153719 -8.8125 21.25 C-9.01939453 20.23292969 -9.22628906 19.21585938 -9.43945312 18.16796875 C-10.51466098 12.78830924 -11.39907898 7.45351977 -12 2 C-7.41036478 -0.73192573 -5.15456075 -1.34885702 0 0 Z " fill="#0065FE" transform="translate(112,117)"/>
<path d="M0 0 C0 0.66 0 1.32 0 2 C0.99 2.33 1.98 2.66 3 3 C3 3.66 3 4.32 3 5 C3.99 5.33 4.98 5.66 6 6 C6 6.66 6 7.32 6 8 C6.99 8.33 7.98 8.66 9 9 C9 9.66 9 10.32 9 11 C9.99 11.33 10.98 11.66 12 12 C12.99 14.475 12.99 14.475 14 17 C9.545 20.465 9.545 20.465 5 24 C7.97 24 10.94 24 14 24 C16.03993514 28.92984325 17.40652968 32.57960425 17 38 C11.9344179 39.885249 6.94007737 40.80601009 1.625 41.625 C0.81289063 41.7590625 0.00078125 41.893125 -0.8359375 42.03125 C-5.95534141 42.83525895 -10.81879133 43.13101907 -16 43 C-15.01 49.435 -15.01 49.435 -14 56 C-12.288125 55.6390625 -10.57625 55.278125 -8.8125 54.90625 C-6.54175192 54.43708717 -4.27091377 53.96836014 -2 53.5 C-0.87464844 53.26152344 0.25070312 53.02304688 1.41015625 52.77734375 C7.39556275 51.55226055 12.89017503 50.70049878 19 51 C19.336611 52.77021322 19.66917293 54.54119674 20 56.3125 C20.2784375 57.79169922 20.2784375 57.79169922 20.5625 59.30078125 C21 62 21 62 21 65 C11.79501703 67.10691832 2.62908241 69.19928014 -6.71484375 70.60546875 C-9.15270217 70.96744759 -9.15270217 70.96744759 -12 72 C-11.01 76.95 -10.02 81.9 -9 87 C-5.98886333 87.33735795 -5.98886333 87.33735795 -4.31640625 85.4609375 C-0.93826143 81.44327752 2.21649309 77.45361106 5 73 C10.34844008 73.53484401 14.35796103 75.46690767 19 78 C16.05808761 88.21538425 7.70586086 95.98159146 0 103 C-0.99 103.495 -0.99 103.495 -2 104 C-1.69404824 107.56943715 -0.97575359 109.03014419 1.3125 111.875 C3.71496526 114.22612756 3.71496526 114.22612756 6.1875 114 C8.33477942 112.99677258 8.33477942 112.99677258 10 110 C10.61394221 107.26542253 11.15285223 104.57071017 11.625 101.8125 C11.7590625 101.06291016 11.893125 100.31332031 12.03125 99.54101562 C12.36045419 97.69512072 12.68106498 95.84769691 13 94 C13.60328125 94.40992188 14.2065625 94.81984375 14.828125 95.2421875 C15.62734375 95.78101563 16.4265625 96.31984375 17.25 96.875 C18.03890625 97.40867187 18.8278125 97.94234375 19.640625 98.4921875 C21.71555692 99.81822015 23.77614972 100.94928175 26 102 C26.51047218 111.18849928 24.59528299 119.10087274 18.66015625 126.3046875 C14.87059339 130.17449992 11.05933437 132.19776856 5.5625 132.5 C-0.98972503 132.1657028 -5.82558338 129.34142151 -10.5 124.875 C-13 122 -13 122 -13 120 C-13.66 120 -14.32 120 -15 120 C-15.66 118.68 -16.32 117.36 -17 116 C-20.47688604 117.69386756 -23.88102818 119.47808336 -27.25 121.375 C-28.83187494 122.25263382 -30.41528009 123.12751376 -32 124 C-32.85464844 124.47308594 -33.70929688 124.94617188 -34.58984375 125.43359375 C-35.44707031 125.88863281 -36.30429687 126.34367187 -37.1875 126.8125 C-37.96480469 127.23144531 -38.74210938 127.65039062 -39.54296875 128.08203125 C-42.69828975 129.26088727 -44.6586764 129.56919817 -48 129 C-49.95927722 126.98679772 -51.3527001 125.29898352 -52.875 123 C-53.2771875 122.42765625 -53.679375 121.8553125 -54.09375 121.265625 C-55.0804061 119.85611629 -56.04268106 118.42959628 -57 117 C-61.76834151 118.1003865 -66.36547862 119.42379222 -71 121 C-74.90963139 122.32761515 -78.77031369 123.49706647 -82.7890625 124.4296875 C-86.95935278 125.50541609 -91.04516358 126.87851679 -95.14453125 128.1953125 C-98 129 -98 129 -101 129 C-101.66 123.72 -102.32 118.44 -103 113 C-101.17855469 112.52949219 -99.35710938 112.05898437 -97.48046875 111.57421875 C-95.04946941 110.9453502 -92.61848038 110.31644183 -90.1875 109.6875 C-88.3940918 109.2244043 -88.3940918 109.2244043 -86.56445312 108.75195312 C-81.04141632 107.3222842 -75.52679783 105.87594154 -70.03125 104.34375 C-66.14545112 103.27671712 -62.30045795 102.42242298 -58.3125 101.8125 C-57.29800781 101.65394531 -56.28351562 101.49539062 -55.23828125 101.33203125 C-54.13033203 101.16767578 -54.13033203 101.16767578 -53 101 C-51.77309928 105.52419641 -50.86808377 109.29223955 -51 114 C-43.92655421 111.42928945 -37.44000009 108.1776868 -30.8828125 104.48828125 C-28.50747534 103.2619893 -26.60571748 102.47205027 -24 102 C-24.58882215 92.72605107 -26.75886856 83.9853735 -29 75 C-32.20845661 75.47834353 -35.41674248 75.95782311 -38.625 76.4375 C-39.98044922 76.63956055 -39.98044922 76.63956055 -41.36328125 76.84570312 C-45.91563297 77.52689444 -50.46264699 78.22367548 -55 79 C-54.505 82.96 -54.505 82.96 -54 87 C-63.86761939 89.84598006 -73.72565048 92.45835081 -83.76855469 94.61132812 C-89.27010241 95.80230906 -94.65377961 97.22688168 -100 99 C-100.67756882 97.44219668 -101.34159457 95.87849904 -102 94.3125 C-102.37125 93.44238281 -102.7425 92.57226562 -103.125 91.67578125 C-104.03154087 88.9035469 -104.33594522 86.89314021 -104 84 C-102.35443434 82.96564444 -100.6829392 81.97236487 -99 81 C-97.57990453 79.20470886 -96.34076664 77.35697162 -95.11328125 75.42578125 C-94.56220703 74.72001953 -94.56220703 74.72001953 -94 74 C-93.34 74 -92.68 74 -92 74 C-91.773125 73.319375 -91.54625 72.63875 -91.3125 71.9375 C-89.64427643 68.20385676 -87.44270392 65.27836579 -85 62 C-86.89600369 62.31146472 -88.79179587 62.62421717 -90.6875 62.9375 C-91.74324219 63.11152344 -92.79898438 63.28554687 -93.88671875 63.46484375 C-96.60249604 63.93167121 -99.30124235 64.44422616 -102 65 C-102.86580287 63.06767179 -103.71729941 61.12892806 -104.5625 59.1875 C-105.03816406 58.10855469 -105.51382813 57.02960938 -106.00390625 55.91796875 C-107 53 -107 53 -106 50 C-105.34 50 -104.68 50 -104 50 C-104 49.34 -104 48.68 -104 48 C-103.34 48 -102.68 48 -102 48 C-101.7525 47.29875 -101.505 46.5975 -101.25 45.875 C-100 43 -100 43 -98.17578125 40.34765625 C-95.70803933 36.55078942 -93.82230294 32.66984513 -91.9375 28.5625 C-91.42993164 27.47485352 -91.42993164 27.47485352 -90.91210938 26.36523438 C-86.75861101 17.43153865 -86.75861101 17.43153865 -83.375 8.1875 C-82.68007343 6.01678852 -82.01973796 4.03947592 -81 2 C-75.76727367 3.63958758 -70.84803364 5.38952035 -66 8 C-67.73598195 18.28522638 -73.26503388 27.82295226 -78 37 C-78.66 37 -79.32 37 -80 37 C-80.103125 37.721875 -80.20625 38.44375 -80.3125 39.1875 C-81.05986932 42.24491993 -82.28045189 44.38329635 -84 47 C-80.25065558 47.10561534 -77.36046529 46.71681245 -74 45 C-70.97884432 40.58242263 -68.95769877 35.96555384 -67 31 C-61.67343841 31.71674696 -58.50777335 33.20518053 -54 36 C-54 35.34 -54 34.68 -54 34 C-51.27172635 33.49465273 -48.54255306 32.99556155 -45.8125 32.5 C-45.04357422 32.35691406 -44.27464844 32.21382812 -43.48242188 32.06640625 C-39.60578227 31.36761285 -35.958529 30.80960983 -32 31 C-32.16298584 30.29786377 -32.32597168 29.59572754 -32.49389648 28.87231445 C-33.02419552 25.86268197 -33.11331957 23.09731538 -33.09765625 20.04296875 C-33.09282227 18.37524414 -33.09282227 18.37524414 -33.08789062 16.67382812 C-33.07532227 14.9480957 -33.07532227 14.9480957 -33.0625 13.1875 C-33.05798828 12.01767578 -33.05347656 10.84785156 -33.04882812 9.64257812 C-33.03706943 6.76169677 -33.01913474 3.88084181 -33 1 C-27.72 1 -22.44 1 -17 1 C-17 9.91 -17 18.82 -17 28 C-11.77539062 27.21875 -11.77539062 27.21875 -6.55078125 26.4375 C-3.64113629 26.07899589 -0.92299978 25.91057744 2 26 C-2.03691699 20.69924577 -6.15901241 15.59279114 -10.71484375 10.7265625 C-12 9 -12 9 -12 6 C-10.13671875 4.39453125 -10.13671875 4.39453125 -7.6875 2.8125 C-6.88699219 2.28269531 -6.08648438 1.75289063 -5.26171875 1.20703125 C-3 0 -3 0 0 0 Z M-54 40 C-54.36351562 40.68964844 -54.72703125 41.37929687 -55.1015625 42.08984375 C-58.03632341 47.57558914 -61.11721238 52.82392191 -64.63671875 57.953125 C-65.84403719 59.76583235 -66.90514055 61.58464375 -67.9375 63.5 C-70.07766854 67.37962467 -72.83349636 70.73899759 -75.609375 74.1796875 C-77.10117838 75.75065552 -77.10117838 75.75065552 -77 77 C-69.5928819 76.37727768 -62.31805865 75.29512034 -55 74 C-55.495 69.05 -55.495 69.05 -56 64 C-55.04480469 63.89042969 -54.08960938 63.78085938 -53.10546875 63.66796875 C-45.14437305 62.69168284 -37.70682343 61.32260432 -30 59 C-30.99 52.565 -30.99 52.565 -32 46 C-33.918125 46.2165625 -33.918125 46.2165625 -35.875 46.4375 C-40.91280884 46.99814645 -45.95536879 47.50501531 -51 48 C-51.33 45.36 -51.66 42.72 -52 40 C-52.66 40 -53.32 40 -54 40 Z " fill="#323232" transform="translate(1023,63)"/>
<path d="M0 0 C4.95 0 9.9 0 15 0 C15.02728362 3.91671491 15.04697488 7.83323468 15.0625 11.75 C15.07087891 12.84183594 15.07925781 13.93367188 15.08789062 15.05859375 C15.10968394 22.4247337 14.7350759 29.67078775 14 37 C14.69561035 36.76812988 15.3912207 36.53625977 16.10791016 36.29736328 C25.40527344 33.19824219 34.70263672 30.09912109 44 27 C44.07637444 34.38315162 44.12873584 41.76620046 44.16479492 49.1496582 C44.17983529 51.65881152 44.20027272 54.16793874 44.22631836 56.67700195 C44.26291014 60.29384825 44.27977448 63.91034542 44.29296875 67.52734375 C44.30845261 68.64020248 44.32393646 69.75306122 44.33988953 70.89964294 C44.34125085 77.27041872 44.01908217 83.25711141 41 89 C35.89867102 93.34155658 31.77353603 94.14016114 25.25 94.0625 C24.26515625 94.05347656 23.2803125 94.04445313 22.265625 94.03515625 C21.51796875 94.02355469 20.7703125 94.01195312 20 94 C18.13459373 89.29593201 16.63156995 85.05255964 16 80 C16.78246094 79.95101562 17.56492187 79.90203125 18.37109375 79.8515625 C19.88896484 79.73941406 19.88896484 79.73941406 21.4375 79.625 C22.95150391 79.52058594 22.95150391 79.52058594 24.49609375 79.4140625 C25.32238281 79.27742188 26.14867187 79.14078125 27 79 C28.39560045 76.20879909 28.21808288 73.79794308 28.31640625 70.6796875 C28.35830078 69.42285156 28.40019531 68.16601562 28.44335938 66.87109375 C28.48267578 65.55238281 28.52199219 64.23367187 28.5625 62.875 C28.60569512 61.53514249 28.64930973 60.19529844 28.69335938 58.85546875 C28.79970981 55.57042185 28.90173808 52.28529719 29 49 C28.16855469 49.3609375 27.33710937 49.721875 26.48046875 50.09375 C25.39378906 50.5578125 24.30710937 51.021875 23.1875 51.5 C22.10855469 51.9640625 21.02960937 52.428125 19.91796875 52.90625 C17 54 17 54 14 54 C14 69.84 14 85.68 14 102 C9.05 102 4.1 102 -1 102 C-1.495 81.21 -1.495 81.21 -2 60 C-4.97 60.99 -7.94 61.98 -11 63 C-11.66 63 -12.32 63 -13 63 C-12.8827136 70.2449995 -12.75787765 77.48984013 -12.62768555 84.73461914 C-12.58426057 87.20138569 -12.54259128 89.66818378 -12.50268555 92.13500977 C-12.44516555 95.67213466 -12.38141925 99.20909966 -12.31640625 102.74609375 C-12.29969376 103.85649521 -12.28298126 104.96689667 -12.26576233 106.11094666 C-12.24581711 107.13192947 -12.22587189 108.15291229 -12.20532227 109.20483398 C-12.18200584 110.56051735 -12.18200584 110.56051735 -12.15821838 111.94358826 C-12.22498543 113.99194101 -12.22498543 113.99194101 -11 115 C-9.64905018 115.09268999 -8.29332909 115.11747326 -6.93920898 115.11352539 C-6.07839218 115.11344986 -5.21757538 115.11337433 -4.33067322 115.11329651 C-2.92755638 115.10555458 -2.92755638 115.10555458 -1.49609375 115.09765625 C-0.06657127 115.09553383 -0.06657127 115.09553383 1.39183044 115.09336853 C4.44875165 115.08775152 7.50560077 115.07519616 10.5625 115.0625 C12.62955624 115.05748719 14.69661362 115.05292391 16.76367188 115.04882812 C21.84247588 115.03777656 26.9212257 115.02050055 32 115 C32.99 109.06 33.98 103.12 35 97 C38.83804889 97.76760978 41.76220144 98.59504326 45.3125 100.0625 C46.19550781 100.42472656 47.07851563 100.78695312 47.98828125 101.16015625 C48.98408203 101.57587891 48.98408203 101.57587891 50 102 C48.58489887 119.83772216 48.58489887 119.83772216 43.0234375 126.4921875 C36.75374521 131.16419758 30.01732648 131.44728738 22.5078125 131.3984375 C21.02883987 131.40274277 21.02883987 131.40274277 19.51998901 131.40713501 C17.44414696 131.40916703 15.36828537 131.40369783 13.29248047 131.39111328 C10.1411585 131.3750822 6.99112567 131.39097411 3.83984375 131.41015625 C1.81249721 131.408173 -0.21484854 131.40432762 -2.2421875 131.3984375 C-3.17167206 131.40451019 -4.10115662 131.41058289 -5.05880737 131.4168396 C-11.6119872 131.34755117 -19.41396831 130.96278662 -24.6778717 126.61373901 C-29.65967822 120.53313733 -29.40700044 113.14701535 -29.29296875 105.71875 C-29.28872391 104.66465942 -29.28447906 103.61056885 -29.28010559 102.52453613 C-29.26341405 99.18275595 -29.22577909 95.8415956 -29.1875 92.5 C-29.17244088 90.22396709 -29.15875463 87.94792465 -29.14648438 85.671875 C-29.11354181 80.11437454 -29.06343806 74.55723158 -29 69 C-30.093125 69.495 -31.18625 69.99 -32.3125 70.5 C-36 72 -36 72 -39 72 C-39 66.72 -39 61.44 -39 56 C-33 53 -33 53 -29 53 C-29 40.13 -29 27.26 -29 14 C-24.05 14 -19.1 14 -14 14 C-12.51320275 16.97359449 -12.88887395 19.66299179 -12.90234375 22.9765625 C-12.9037587 23.66181 -12.90517365 24.3470575 -12.90663147 25.05307007 C-12.91223325 27.24375761 -12.92478594 29.4343433 -12.9375 31.625 C-12.94251478 33.10937352 -12.94707772 34.59374865 -12.95117188 36.078125 C-12.96220323 39.71878315 -12.97946901 43.35938164 -13 47 C-12.30132813 46.71125 -11.60265625 46.4225 -10.8828125 46.125 C-9.97273437 45.75375 -9.06265625 45.3825 -8.125 45 C-7.22007812 44.62875 -6.31515625 44.2575 -5.3828125 43.875 C-3 43 -3 43 -1 43 C-0.67 28.81 -0.34 14.62 0 0 Z " fill="#323232" transform="translate(538,64)"/>
<path d="M0 0 C4.80138004 0.6987924 9.40371407 1.86150609 14.0625 3.1875 C14.84125488 3.40672119 15.62000977 3.62594238 16.42236328 3.85180664 C18.9492086 4.56450018 21.47461438 5.28215304 24 6 C25.71482352 6.48444662 27.42966739 6.96882122 29.14453125 7.453125 C38.51977993 10.10940148 47.86490461 12.85006364 57.18994141 15.67724609 C64.01739143 17.73415724 70.87881114 19.65747307 77.75 21.5625 C87.22936854 24.19087366 96.64044654 26.97313994 106 30 C106 30.66 106 31.32 106 32 C104.88927124 32.42297363 104.88927124 32.42297363 103.75610352 32.85449219 C100.35725999 34.1504522 96.95987597 35.45019791 93.5625 36.75 C92.39783203 37.1934375 91.23316406 37.636875 90.03320312 38.09375 C84.2704114 40.30146739 78.58258578 42.58459327 72.96459961 45.13769531 C70.03235424 46.42472037 67.0281009 47.46259506 64 48.5 C60.15109678 49.84855076 56.38136637 51.20891399 52.6875 52.9375 C48.39214816 54.9280289 43.96898094 56.45374602 39.5 58 C34.40030852 59.76716582 29.43338546 61.60439134 24.53515625 63.87890625 C14.92352513 68.12935021 4.99108221 71.69553249 -4.9375 75.125 C-10.52870855 77.05683139 -15.87582903 79.23020052 -21.2265625 81.765625 C-35.23417722 88 -35.23417722 88 -40 88 C-39.23874131 82.40196357 -37.69530009 77.09929031 -36.125 71.6875 C-35.86847656 70.78837891 -35.61195313 69.88925781 -35.34765625 68.96289062 C-33.04632314 60.96604719 -30.43561713 53.12172655 -27.5625 45.3125 C-25.43796164 39.40323012 -23.65487605 33.45406855 -21.97265625 27.40625 C-20.49031006 22.21506174 -18.86661562 17.0665281 -17 12 C-16.74734375 11.24460938 -16.4946875 10.48921875 -16.234375 9.7109375 C-15 8 -15 8 -12.3984375 7.390625 C-11.40070313 7.34421875 -10.40296875 7.2978125 -9.375 7.25 C-8.37210938 7.19328125 -7.36921875 7.1365625 -6.3359375 7.078125 C-5.56507813 7.05234375 -4.79421875 7.0265625 -4 7 C-4 6.34 -4 5.68 -4 5 C-3.02149805 3.97895449 -2.02019573 2.9793879 -1 2 C-0.67 1.34 -0.34 0.68 0 0 Z " fill="#0065FE" transform="translate(247,183)"/>
<path d="M0 0 C-2.83953433 3.90435971 -6.05337386 6.85220862 -9.703125 9.953125 C-13.28198938 13.14245312 -16.57496444 16.60650331 -19.8984375 20.05859375 C-22 22 -22 22 -24 22 C-24 22.66 -24 23.32 -24 24 C-25.46655273 25.46069336 -25.46655273 25.46069336 -27.49609375 27.15234375 C-32.52456972 31.42815327 -37.29862978 35.94255359 -42.08789062 40.48242188 C-45.81942025 44.00362233 -49.59828904 47.42108613 -53.54638672 50.69873047 C-55.64151637 52.57428321 -57.25322459 54.80244384 -59 57 C-64.28846154 62 -64.28846154 62 -67 62 C-67.33 62.99 -67.66 63.98 -68 65 C-68.66 65 -69.32 65 -70 65 C-70.495 66.485 -70.495 66.485 -71 68 C-71.66 68 -72.32 68 -73 68 C-73.495 69.485 -73.495 69.485 -74 71 C-75.6015625 72.578125 -75.6015625 72.578125 -77.625 74.25 C-80.36859877 76.57375981 -82.98671796 78.92880824 -85.5 81.5 C-88.57276137 84.62888487 -91.81442036 87.49983182 -95.140625 90.35546875 C-96.80016685 91.82325682 -98.34358233 93.33851979 -99.875 94.9375 C-102 97 -102 97 -104 97 C-104.495 98.485 -104.495 98.485 -105 100 C-105.66 100 -106.32 100 -107 100 C-107 100.66 -107 101.32 -107 102 C-108.4609375 103.5078125 -108.4609375 103.5078125 -110.375 105.125 C-111.00148437 105.66382813 -111.62796875 106.20265625 -112.2734375 106.7578125 C-114 108 -114 108 -116 108 C-116.33 108.99 -116.66 109.98 -117 111 C-117.66 111 -118.32 111 -119 111 C-119.33 111.99 -119.66 112.98 -120 114 C-120.66 114 -121.32 114 -122 114 C-122.33 114.99 -122.66 115.98 -123 117 C-123.66 117 -124.32 117 -125 117 C-125 117.66 -125 118.32 -125 119 C-125.99 119 -126.98 119 -128 119 C-128.31453125 118.04480469 -128.6290625 117.08960938 -128.953125 116.10546875 C-130.9108638 110.1845589 -132.8686118 104.27621442 -135.0625 98.4375 C-137.00813448 93.17881725 -138.49156929 87.82436903 -139.99609375 82.42578125 C-141.43160039 77.52718467 -143.20695753 72.77654756 -145 68 C-145.61615051 66.35861544 -146.22112535 64.71297289 -146.8125 63.0625 C-147.06644531 62.37285156 -147.32039062 61.68320312 -147.58203125 60.97265625 C-148.09916061 58.53199901 -148.03411642 57.27975665 -147 55 C-145.05859375 53.7265625 -145.05859375 53.7265625 -142.4375 52.625 C-141.43847656 52.20347656 -140.43945312 51.78195312 -139.41015625 51.34765625 C-130.79469989 47.94292264 -122.12893008 44.72970787 -113.3762207 41.6965332 C-106.94706716 39.46694722 -100.75998119 37.07206368 -94.60546875 34.1484375 C-90.82181358 32.48067945 -86.91215152 31.29108711 -82.9765625 30.03515625 C-80.00431039 29.00149902 -77.21976373 27.77974767 -74.375 26.4375 C-70.11054917 24.42781628 -65.91384299 23.00952648 -61.3828125 21.73828125 C-58.30221096 20.78379979 -55.47046527 19.46027869 -52.55078125 18.1015625 C-48.30082117 16.26620455 -43.90950408 14.82956839 -39.52734375 13.34375 C-36.95596601 12.36417753 -34.69589482 11.36642008 -32.27734375 10.10546875 C-27.23927502 7.52056736 -21.95669834 5.69448359 -16.625 3.8125 C-14.65851195 3.11163654 -12.69234903 2.40985995 -10.7265625 1.70703125 C-9.86627441 1.4025708 -9.00598633 1.09811035 -8.11962891 0.78442383 C-3.31373762 -0.99412129 -3.31373762 -0.99412129 0 0 Z " fill="#0065FE" transform="translate(354,218)"/>
<path d="M0 0 C37.29 0 74.58 0 113 0 C113 5.28 113 10.56 113 16 C96.83 16 80.66 16 64 16 C64 30.85 64 45.7 64 61 C82.15 61 100.3 61 119 61 C119 66.28 119 71.56 119 77 C100.85 77 82.7 77 64 77 C64 92.84 64 108.68 64 125 C58.72 125 53.44 125 48 125 C48 109.16 48 93.32 48 77 C29.85 77 11.7 77 -7 77 C-7 71.72 -7 66.44 -7 61 C11.15 61 29.3 61 48 61 C48 46.15 48 31.3 48 16 C32.16 16 16.32 16 0 16 C0 10.72 0 5.44 0 0 Z " fill="#323232" transform="translate(695,70)"/>
<path d="M0 0 C1.89492188 0.19335938 1.89492188 0.19335938 3.828125 0.390625 C4.79234375 0.50921875 5.7565625 0.6278125 6.75 0.75 C7.22308594 1.77996094 7.69617188 2.80992188 8.18359375 3.87109375 C13.63325658 15.64426391 19.58223928 27.09127131 25.78125 38.484375 C29.90891773 46.1013903 33.71543143 53.81862506 37.37915039 61.66967773 C40.41862353 68.1464539 43.70077007 74.46357452 47.12109375 80.74609375 C47.65863281 81.73738281 48.19617188 82.72867188 48.75 83.75 C49.15347656 84.48347656 49.55695313 85.21695313 49.97265625 85.97265625 C50.75 87.75 50.75 87.75 50.75 90.75 C44.64244617 89.48210503 38.70608042 87.90854739 32.75 86.0625 C24.96505087 83.68825662 17.15351322 81.43181046 9.3125 79.25 C8.25434082 78.95520752 7.19618164 78.66041504 6.10595703 78.35668945 C3.9956423 77.76891072 1.88529126 77.18126234 -0.22509766 76.59375 C-12.35538843 73.2101919 -24.45005314 69.72255771 -36.5 66.0625 C-37.44053223 65.77697266 -38.38106445 65.49144531 -39.35009766 65.19726562 C-41.13534194 64.65149916 -42.91826897 64.09807974 -44.69848633 63.53613281 C-46.40161393 63.01139156 -48.1157185 62.52105775 -49.83862305 62.06542969 C-55.83297991 60.37796032 -55.83297991 60.37796032 -57.92578125 57.2265625 C-59.64299242 49.53598485 -59.64299242 49.53598485 -57.8125 45.875 C-56.966875 45.17375 -56.12125 44.4725 -55.25 43.75 C-54.74082031 43.28722656 -54.23164063 42.82445312 -53.70703125 42.34765625 C-49.6708795 38.75 -49.6708795 38.75 -47.25 38.75 C-46.92 37.76 -46.59 36.77 -46.25 35.75 C-45.59 35.75 -44.93 35.75 -44.25 35.75 C-43.92 34.76 -43.59 33.77 -43.25 32.75 C-42.59 32.75 -41.93 32.75 -41.25 32.75 C-41.25 32.09 -41.25 31.43 -41.25 30.75 C-39.921875 29.41015625 -39.921875 29.41015625 -38 27.8125 C-33.74492205 24.20213083 -29.6384562 20.45654074 -25.55175781 16.65844727 C-22.54795782 13.88367455 -19.45104979 11.29233036 -16.25 8.75 C-13.87674129 6.43462565 -11.5946051 4.19046078 -9.55078125 1.578125 C-6.25876418 -1.03760334 -4.10144934 -0.45571659 0 0 Z " fill="#0065FE" transform="translate(304.25,121.25)"/>
<path d="M0 0 C4.5989415 0.52063489 4.5989415 0.52063489 7 2 C7.95043945 4.01000977 7.95043945 4.01000977 8.61328125 6.50390625 C8.8548999 7.40689453 9.09651855 8.30988281 9.34545898 9.24023438 C10.31526447 13.32926132 11.13750851 17.42572879 11.875 21.5625 C12.21648111 23.40773126 12.5589733 25.25277563 12.90234375 27.09765625 C13.08007324 28.05816895 13.25780273 29.01868164 13.44091797 30.00830078 C16.05002609 43.96987762 18.80118018 57.89323384 22.30053711 71.66210938 C23.99441552 78.4630206 24.91798631 84.96691102 26 92 C-5.68 92 -37.36 92 -70 92 C-68.4709927 88.17748175 -67.37912181 85.8457842 -65 82.6875 C-64.484375 81.99011719 -63.96875 81.29273438 -63.4375 80.57421875 C-62.963125 80.05472656 -62.48875 79.53523438 -62 79 C-61.34 79 -60.68 79 -60 79 C-59.75636719 78.45601563 -59.51273438 77.91203125 -59.26171875 77.3515625 C-57.70707603 74.45405501 -55.81298964 71.98493312 -53.8125 69.375 C-50.17940162 64.60509342 -46.73035106 59.75769096 -43.41015625 54.765625 C-42.71212891 53.89164063 -42.71212891 53.89164063 -42 53 C-41.34 53 -40.68 53 -40 53 C-39.61328125 52.17242187 -39.61328125 52.17242187 -39.21875 51.328125 C-37.82036875 48.65685825 -36.21236695 46.23148091 -34.5 43.75 C-33.8915625 42.85796875 -33.283125 41.9659375 -32.65625 41.046875 C-32.1096875 40.37140625 -31.563125 39.6959375 -31 39 C-30.34 39 -29.68 39 -29 39 C-28.79117188 38.32839844 -28.58234375 37.65679687 -28.3671875 36.96484375 C-26.52904695 32.97870467 -23.91896194 29.92262449 -21.125 26.5625 C-16.7001137 21.21754503 -16.7001137 21.21754503 -12.7421875 15.52734375 C-11.87980469 14.27630859 -11.87980469 14.27630859 -11 13 C-10.34 13 -9.68 13 -9 13 C-8.7215625 12.01 -8.7215625 12.01 -8.4375 11 C-6.37066625 6.68660782 -3.23462189 3.48543481 0 0 Z " fill="#0065FE" transform="translate(91,118)"/>
<path d="M0 0 C-1.45188594 3.35043397 -3.2819659 5.50486196 -5.88671875 8.046875 C-7.0478418 9.1915625 -7.0478418 9.1915625 -8.23242188 10.359375 C-9.04259766 11.14828125 -9.85277344 11.9371875 -10.6875 12.75 C-17.14491259 19.02825737 -17.14491259 19.02825737 -23.1953125 25.69140625 C-28.79701347 32.22063788 -35.07615038 38.14155405 -41.1875 44.1875 C-43.70476281 46.6780477 -46.21860465 49.17197755 -48.73046875 51.66796875 C-49.30033005 52.22953171 -49.87019135 52.79109467 -50.45732117 53.36967468 C-52.9036681 55.80099269 -55.13487669 58.17229643 -57.2668457 60.89575195 C-57.83878662 61.59015381 -58.41072754 62.28455566 -59 63 C-59.66 63 -60.32 63 -61 63 C-61.33 63.99 -61.66 64.98 -62 66 C-62.66 66 -63.32 66 -64 66 C-64.495 67.485 -64.495 67.485 -65 69 C-65.66 69 -66.32 69 -67 69 C-67.495 70.485 -67.495 70.485 -68 72 C-68.66 72 -69.32 72 -70 72 C-70.495 73.485 -70.495 73.485 -71 75 C-71.66 75 -72.32 75 -73 75 C-73.495 76.485 -73.495 76.485 -74 78 C-78.875 77.125 -78.875 77.125 -80 76 C-81.62139437 75.87505384 -83.24884122 75.82428376 -84.875 75.8125 C-85.75929687 75.79832031 -86.64359375 75.78414063 -87.5546875 75.76953125 C-90.25766726 75.82931576 -90.25766726 75.82931576 -93 78 C-94.00593243 76.8803014 -95.0045849 75.7540588 -96 74.625 C-96.556875 73.99851562 -97.11375 73.37203125 -97.6875 72.7265625 C-99 71 -99 71 -99 69 C-99.66 69 -100.32 69 -101 69 C-102.2890625 67.5390625 -102.2890625 67.5390625 -103.625 65.625 C-104.07101563 64.99851562 -104.51703125 64.37203125 -104.9765625 63.7265625 C-106 62 -106 62 -106 60 C-106.66 60 -107.32 60 -108 60 C-109.34106445 58.45874023 -109.34106445 58.45874023 -110.86328125 56.30859375 C-111.42080078 55.52806641 -111.97832031 54.74753906 -112.55273438 53.94335938 C-113.13345703 53.11642578 -113.71417969 52.28949219 -114.3125 51.4375 C-114.88162109 50.63763672 -115.45074219 49.83777344 -116.03710938 49.01367188 C-117.1611431 47.43279781 -118.28245342 45.84998341 -119.40087891 44.26513672 C-121.58771958 41.16750194 -123.79372723 38.08381465 -126 35 C-124.56385635 32.1277127 -123.02529549 32.02988783 -120 31 C-118.20447732 30.55382669 -116.40880814 30.10823743 -114.61254883 29.66503906 C-109.39108862 28.33588687 -104.20155321 26.88511148 -99.0057373 25.45956421 C-89.55101277 22.86567638 -80.09456275 20.27959209 -70.6171875 17.76953125 C-69.94916107 17.59244629 -69.28113464 17.41536133 -68.59286499 17.23291016 C-65.44160704 16.39817823 -62.28952975 15.56673622 -59.13623047 14.73974609 C-53.4409562 13.23465247 -47.791292 11.65093244 -42.16796875 9.89453125 C-37.33060612 8.38408945 -32.51096145 7.08239889 -27.5625 6 C-20.93136732 4.5045965 -14.4521061 2.73643079 -7.953125 0.734375 C-5.16194602 0.04027229 -2.85925299 -0.14825756 0 0 Z " fill="#0065FE" transform="translate(182,20)"/>
<path d="M0 0 C16.19642467 1.64817248 32.18182592 3.92698293 48.203125 6.81640625 C53.80921694 7.81566615 59.42381633 8.66310268 65.06347656 9.44848633 C72.39399516 10.47550453 79.71474697 11.56947215 87.03613281 12.65942383 C88.86665896 12.93130208 90.69739378 13.20177854 92.52832031 13.47094727 C95.20166534 13.86410015 97.87432533 14.26163727 100.546875 14.66015625 C101.36758484 14.77996353 102.18829468 14.89977081 103.03387451 15.02320862 C108.77193529 15.88596764 108.77193529 15.88596764 111 17 C111.85732749 30.53841075 112.28235007 44.06345663 112.5625 57.625 C112.6058437 59.61458937 112.64946204 61.60417277 112.69335938 63.59375 C112.79872575 68.39577077 112.90042227 73.19785585 113 78 C104.69805493 82.45790695 104.69805493 82.45790695 100.92675781 81.44091797 C98.99355751 80.24158905 97.33412542 78.93833793 95.625 77.4375 C95.03589844 76.96763672 94.44679688 76.49777344 93.83984375 76.01367188 C92.70700389 75.10612713 91.58665654 74.18269431 90.48144531 73.24169922 C89.23211444 72.19455077 87.91490033 71.22919295 86.5859375 70.28515625 C86.06257813 69.86105469 85.53921875 69.43695313 85 69 C85 68.34 85 67.68 85 67 C84.44957031 66.74863281 83.89914062 66.49726562 83.33203125 66.23828125 C80.58218902 64.77814727 78.19049852 63.03908165 75.6875 61.1875 C72.42783953 58.77989555 69.1576045 56.4119592 65.8125 54.125 C64.884375 53.42375 63.95625 52.7225 63 52 C63 51.34 63 50.68 63 50 C62.48953125 49.773125 61.9790625 49.54625 61.453125 49.3125 C58.02231322 47.47690643 54.91729979 45.25316042 51.75 43 C50.77546875 42.32324219 50.77546875 42.32324219 49.78125 41.6328125 C48.14924291 40.47395032 46.5695175 39.24218497 45 38 C45 37.34 45 36.68 45 36 C44.45730469 35.75636719 43.91460937 35.51273438 43.35546875 35.26171875 C40.44352112 33.70191927 37.9433404 31.8105631 35.3125 29.8125 C34.78140625 29.4103125 34.2503125 29.008125 33.703125 28.59375 C29.90114811 25.70791212 26.13087095 22.78247126 22.37890625 19.83203125 C20.53065272 18.40866359 18.65853583 17.01625961 16.77734375 15.63671875 C15.94783203 15.02763672 15.94783203 15.02763672 15.1015625 14.40625 C13.50740469 13.2386978 11.90811095 12.07816787 10.30859375 10.91796875 C9.54675781 10.28503906 8.78492188 9.65210938 8 9 C8 8.34 8 7.68 8 7 C7.01 7 6.02 7 5 7 C5 6.34 5 5.68 5 5 C4.360625 4.731875 3.72125 4.46375 3.0625 4.1875 C1 3 1 3 0 0 Z " fill="#0065FE" transform="translate(192,19)"/>
<path d="M0 0 C21.12 0 42.24 0 64 0 C63.35584109 5.79743023 62.67566908 11.03991806 61.44140625 16.66796875 C61.29219223 17.35127762 61.14297821 18.03458649 60.98924255 18.73860168 C60.67629198 20.16663837 60.36109497 21.59418452 60.04370117 23.02124023 C59.56151851 25.19191844 59.08787446 27.36433567 58.61523438 29.53710938 C57.31201326 35.4627121 55.93716921 41.24467823 54 47 C53.66477409 48.48797461 53.36008178 49.98323668 53.08984375 51.484375 C51.81617778 58.12980486 50.17581974 64.6802606 48.5625 71.25 C46.2165766 80.80522348 44.01037621 90.36868041 42 100 C37.34179828 98.04204777 36.22514066 94.8845863 34.3125 90.4375 C33.61432415 88.88247198 32.91238767 87.32912788 32.20703125 85.77734375 C31.84561035 84.98183105 31.48418945 84.18631836 31.11181641 83.36669922 C29.37577881 79.67123403 27.4444449 76.08897111 25.5 72.5 C22.10343196 66.19229555 18.96340396 59.80510472 15.94921875 53.30688477 C12.77885555 46.48101102 9.41847525 39.75878498 6.02636719 33.04101562 C4.93966383 30.88001656 3.86326673 28.71411263 2.7890625 26.546875 C2.42683594 25.81734619 2.06460937 25.08781738 1.69140625 24.33618164 C0.99729326 22.9376266 0.30451439 21.53840837 -0.38671875 20.13842773 C-1.79931632 17.29906303 -3.23778263 14.64332606 -5 12 C-4 8 -4 8 0 0 Z " fill="#0065FE" transform="translate(317,111)"/>
<path d="M0 0 C0.99 0 1.98 0 3 0 C5.04296875 2.3359375 5.04296875 2.3359375 7.1875 5.375 C8.26064453 6.87160156 8.26064453 6.87160156 9.35546875 8.3984375 C11 11 11 11 11 13 C11.66 13 12.32 13 13 13 C14.21875 14.71484375 14.21875 14.71484375 15.5 16.9375 C17.18454879 20.05432026 17.18454879 20.05432026 20 22 C20 22.99 20 23.98 20 25 C21.485 25.495 21.485 25.495 23 26 C25.33464569 28.55356759 27.25342479 31.42773831 29.25 34.25 C30.10078125 35.39662109 30.10078125 35.39662109 30.96875 36.56640625 C31.76539062 37.68595703 31.76539062 37.68595703 32.578125 38.828125 C33.31144043 39.8476123 33.31144043 39.8476123 34.05957031 40.88769531 C35.28700319 43.64463956 34.78203163 45.13758421 34 48 C33.93540958 49.76977761 33.91388935 51.54170152 33.9375 53.3125 C33.94652344 54.19550781 33.95554687 55.07851562 33.96484375 55.98828125 C33.97644531 56.65214844 33.98804687 57.31601563 34 58 C32.96101563 58.38671875 31.92203125 58.7734375 30.8515625 59.171875 C23.19711889 62.02722808 15.57081008 64.92860849 8 68 C-5.97304069 73.62367893 -20.01546659 79.04712033 -34.13134766 84.30224609 C-35.87454152 84.95315386 -37.6151129 85.61107298 -39.35546875 86.26953125 C-40.81919922 86.81673828 -40.81919922 86.81673828 -42.3125 87.375 C-43.15425781 87.69210938 -43.99601562 88.00921875 -44.86328125 88.3359375 C-47 89 -47 89 -50 89 C-48.33267899 84.42601241 -46.05984531 80.29676278 -43.6875 76.0625 C-43.25888672 75.29268799 -42.83027344 74.52287598 -42.38867188 73.72973633 C-38.16117273 66.18844751 -33.75045206 58.75638729 -29.29174805 51.34985352 C-28.49764526 50.02232056 -28.49764526 50.02232056 -27.6875 48.66796875 C-27.21699219 47.88703857 -26.74648438 47.1061084 -26.26171875 46.30151367 C-24.95939258 43.92592761 -23.95443065 41.53310598 -23 39 C-22.34 39 -21.68 39 -21 39 C-20.88527344 38.26136719 -20.77054688 37.52273437 -20.65234375 36.76171875 C-19.98622288 33.94167412 -19.1198168 32.23450261 -17.5625 29.8125 C-14.02376686 24.13167658 -10.80947835 18.29388112 -7.60375977 12.42114258 C-2.73180171 3.55927691 -2.73180171 3.55927691 0 0 Z " fill="#0065FE" transform="translate(52,55)"/>
<path d="M0 0 C-0.44391296 4.92928345 -2.97788406 7.98121059 -6 11.6875 C-9.30174829 15.64350475 -9.30174829 15.64350475 -12 20 C-12.66 20 -13.32 20 -14 20 C-14.24363281 20.54269531 -14.48726563 21.08539063 -14.73828125 21.64453125 C-16.29808073 24.55647888 -18.1894369 27.0566596 -20.1875 29.6875 C-21.29158203 31.14736328 -21.29158203 31.14736328 -22.41796875 32.63671875 C-24.3570011 35.172525 -26.31533525 37.69287719 -28.27734375 40.2109375 C-32.3413492 45.42918419 -36.3623653 50.67969228 -40.375 55.9375 C-41.09816406 56.88173828 -41.82132813 57.82597656 -42.56640625 58.79882812 C-43.59701172 60.14944336 -43.59701172 60.14944336 -44.6484375 61.52734375 C-45.26895996 62.33937256 -45.88948242 63.15140137 -46.52880859 63.98803711 C-48.03419734 65.92927676 -48.03419734 65.92927676 -49 68 C-49.66 68 -50.32 68 -51 68 C-51.24105469 68.54011719 -51.48210938 69.08023438 -51.73046875 69.63671875 C-53.62877991 73.17049798 -56.10332755 76.22960092 -58.53369141 79.41113281 C-60.7369261 82.30559579 -62.85322982 85.2266189 -64.875 88.25 C-65.57625 89.1575 -66.2775 90.065 -67 91 C-67.99 91 -68.98 91 -70 91 C-72.78634924 84.76497259 -75.20754851 78.59680916 -77 72 C-78.51317482 66.44152315 -80.46600064 61.30867755 -82.765625 56.03515625 C-84.54882997 51.65050352 -85.87495273 47.15692385 -87.203125 42.6171875 C-87.90463631 40.05131271 -87.90463631 40.05131271 -89 38 C-89.039992 36.00039988 -89.04346799 33.99952758 -89 32 C-87.94941406 31.61328125 -86.89882812 31.2265625 -85.81640625 30.828125 C-77.00287538 27.61144679 -77.00287538 27.61144679 -68.375 23.9375 C-63.58281559 21.7250164 -58.61473206 20.05319524 -53.625 18.34375 C-50.90296019 17.334718 -48.32202913 16.26401197 -45.6875 15.0625 C-40.0772347 12.52837169 -34.28934512 10.60825628 -28.4609375 8.64453125 C-23.53591935 6.95965662 -18.77096594 5.09860558 -14.03833008 2.92895508 C-4.44592622 -1.44271778 -4.44592622 -1.44271778 0 0 Z " fill="#0065FE" transform="translate(89,115)"/>
<path d="M0 0 C4.95 0 9.9 0 15 0 C15 12.54 15 25.08 15 38 C19.95 38 24.9 38 30 38 C30 43.28 30 48.56 30 54 C25.05 54 20.1 54 15 54 C15.33 65.55 15.66 77.1 16 89 C18.64 87.68 21.28 86.36 24 85 C27.5 84.25 27.5 84.25 30 84 C30.50435694 85.9363704 31.00333874 87.87414146 31.5 89.8125 C31.7784375 90.89144531 32.056875 91.97039062 32.34375 93.08203125 C33 96 33 96 33 99 C32.030625 99.4125 31.06125 99.825 30.0625 100.25 C22.80834028 103.36558031 15.66062065 106.60291721 8.625 110.1875 C1.64864588 113.7356433 -5.33450588 117.22174348 -13 119 C-14.03275341 116.73392948 -15.05133551 114.46318061 -16.0625 112.1875 C-16.35705078 111.54490234 -16.65160156 110.90230469 -16.95507812 110.24023438 C-19.11328125 105.33984375 -19.11328125 105.33984375 -18 102 C-15.35053805 100.79409871 -12.79925459 99.77048238 -10.0625 98.8125 C-9.32064453 98.53986328 -8.57878906 98.26722656 -7.81445312 97.98632812 C-2.32342575 96 -2.32342575 96 0 96 C0 82.14 0 68.28 0 54 C-4.95 54 -9.9 54 -15 54 C-15 48.72 -15 43.44 -15 38 C-10.05 38 -5.1 38 0 38 C0 25.46 0 12.92 0 0 Z " fill="#323232" transform="translate(471,64)"/>
<path d="M0 0 C0.66 0 1.32 0 2 0 C2 0.66 2 1.32 2 2 C2.5878125 2.27199219 3.175625 2.54398438 3.78125 2.82421875 C8.17844932 5.15442473 11.85315946 8.55720061 14.9375 12.4375 C17.27929323 15.34700068 19.89270479 17.56273512 22.7265625 19.98046875 C25.25592427 22.22734166 27.62433707 24.59144327 30 27 C33.55582104 30.59931732 37.20075479 33.98235165 41.046875 37.265625 C43.94764719 39.8415107 46.63712803 42.6136102 49.3359375 45.3984375 C50.92422733 47.08628724 50.92422733 47.08628724 53 48 C53 48.66 53 49.32 53 50 C53.99 50.33 54.98 50.66 56 51 C56 51.66 56 52.32 56 53 C56.99 53.33 57.98 53.66 59 54 C59 54.66 59 55.32 59 56 C59.99 56.33 60.98 56.66 62 57 C62 57.66 62 58.32 62 59 C62.99 59.33 63.98 59.66 65 60 C65 60.66 65 61.32 65 62 C65.8353125 62.37125 65.8353125 62.37125 66.6875 62.75 C69.39971127 64.21606015 71.63587365 66.02989471 74 68 C73.505 69.485 73.505 69.485 73 71 C52.87 71 32.74 71 12 71 C10.68 68.36 9.36 65.72 8 63 C6.02379014 61.95377125 4.0262871 60.94560065 2 60 C0.61544448 55.66598569 0.78067919 51.05713455 0.68359375 46.54296875 C0.66281265 45.72234451 0.64203156 44.90172028 0.62062073 44.05622864 C0.57745816 42.31723946 0.53640406 40.57819683 0.49731445 38.83911133 C0.43855788 36.23439646 0.3732076 33.6299163 0.30664062 31.02539062 C0.05200242 20.68131418 -0.05703689 10.34721634 0 0 Z " fill="#0065FE" transform="translate(305,38)"/>
<path d="M0 0 C30.21052632 0 30.21052632 0 37 5.375 C40.54480891 10.02756169 40.58705785 15.28162171 40 21 C38.22728129 26.90906236 36.06691859 28.73465247 31 32 C31 33.32 31 34.64 31 36 C31.66 36 32.32 36 33 36 C34.65625 38.30078125 34.65625 38.30078125 36.5 41.3125 C37.1084375 42.29863281 37.716875 43.28476562 38.34375 44.30078125 C38.8903125 45.19152344 39.436875 46.08226562 40 47 C40.66 47.99 41.32 48.98 42 50 C42 50.99 42 51.98 42 53 C37.5006183 53.66983276 33.4707687 53.95056064 29 53 C26.47608105 50.48472461 25.06537559 48.06587683 23.46484375 44.89453125 C22.08193223 41.90530912 22.08193223 41.90530912 19.81640625 39.32421875 C18 37 18 37 18 34 C15.69 34 13.38 34 11 34 C11 40.27 11 46.54 11 53 C7.37 53 3.74 53 0 53 C0 35.51 0 18.02 0 0 Z M11 10 C11 14.62 11 19.24 11 24 C13.0625 24.0825 15.125 24.165 17.25 24.25 C18.41015625 24.29640625 19.5703125 24.3428125 20.765625 24.390625 C24.0646547 24.27292362 24.0646547 24.27292362 26.359375 22.171875 C28.17422187 20.00982344 28.17422187 20.00982344 29 17 C27.83333333 13.83333333 27.83333333 13.83333333 26 11 C21.09931037 9.36643679 16.14261524 9.94470306 11 10 Z " fill="#323232" transform="translate(749,238)"/>
<path d="M0 0 C2.97 0 5.94 0 9 0 C9 6.93 9 13.86 9 21 C17.25 21 25.5 21 34 21 C34 14.07 34 7.14 34 0 C37.3 0 40.6 0 44 0 C44 17.49 44 34.98 44 53 C40.7 53 37.4 53 34 53 C34 45.74 34 38.48 34 31 C25.75 31 17.5 31 9 31 C9 38.26 9 45.52 9 53 C6.03 53 3.06 53 0 53 C0 35.51 0 18.02 0 0 Z " fill="#333333" transform="translate(458,238)"/>
<path d="M0 0 C3.3 0 6.6 0 10 0 C10 4.95 10 9.9 10 15 C11.98 14.34 13.96 13.68 16 13 C20.89444079 12.4534943 25.66500005 12.47125003 30 15 C34.59144452 19.05755562 36.7768249 21.69777261 37.37109375 27.828125 C37.75725394 41.91105347 37.75725394 41.91105347 33.38671875 47.5546875 C32.92910156 48.03164063 32.47148438 48.50859375 32 49 C31.49210938 49.53496094 30.98421875 50.06992187 30.4609375 50.62109375 C26.41853016 54.436521 21.6438146 54.2973519 16.3828125 54.203125 C13.62968498 53.96843216 11.43870416 53.30064222 9 52 C8.505 52.495 8.505 52.495 8 53 C5.36 53 2.72 53 0 53 C0 35.51 0 18.02 0 0 Z M11 24 C9.34502644 27.30994713 9.89915665 30.99123 9.9375 34.625 C9.94201172 35.42679687 9.94652344 36.22859375 9.95117188 37.0546875 C9.96296832 39.03649006 9.98090395 41.01825433 10 43 C13.57038924 44.91956411 15.89988147 45.50205533 20 45 C23.37940996 42.84946639 25.81543238 40.87676675 27 37 C27.45907377 32.25623772 27.41570329 29.91454724 25.4375 25.5625 C23.15474631 22.73232819 23.15474631 22.73232819 19.5625 22 C16.05320843 22 14.04132788 22.30043442 11 24 Z " fill="#323232" transform="translate(840,237)"/>
<path d="M0 0 C3.63 0 7.26 0 11 0 C11.33 0.99 11.66 1.98 12 3 C12.78375 2.505 13.5675 2.01 14.375 1.5 C19.08405256 -0.44857347 22.97555097 -0.9604397 28 0 C32.48130892 2.24476575 34.52486104 4.64066205 36.1796875 9.375 C37.5076484 15.34120116 37.21181519 21.42293667 37.125 27.5 C37.11597656 28.70398438 37.10695313 29.90796875 37.09765625 31.1484375 C37.07423873 34.09904497 37.03837292 37.04954913 37 40 C33.04 40 29.08 40 25 40 C24.95101562 38.07414062 24.90203125 36.14828125 24.8515625 34.1640625 C24.7765465 31.65102655 24.70099818 29.13800644 24.625 26.625 C24.5940625 25.35398437 24.563125 24.08296875 24.53125 22.7734375 C24.49257813 21.56171875 24.45390625 20.35 24.4140625 19.1015625 C24.3826416 17.98088379 24.3512207 16.86020508 24.31884766 15.70556641 C24.26588797 12.85289588 24.26588797 12.85289588 22 11 C18.4292371 11.37586978 16.28657463 12.35671268 13 14 C12.67 22.58 12.34 31.16 12 40 C8.04 40 4.08 40 0 40 C0 26.8 0 13.6 0 0 Z " fill="#323232" transform="translate(679,251)"/>
<path d="M0 0 C0.75152344 -0.02900391 1.50304687 -0.05800781 2.27734375 -0.08789062 C7.69175769 -0.14931068 10.61048343 0.75963466 14.75 4.3125 C14.75 4.9725 14.75 5.6325 14.75 6.3125 C15.41 6.3125 16.07 6.3125 16.75 6.3125 C19.92351385 12.30534089 21.93413152 17.48908865 20.75 24.3125 C19.24697848 28.93154176 17.54920494 33.14151005 13.75 36.3125 C13.09 36.3125 12.43 36.3125 11.75 36.3125 C11.75 36.9725 11.75 37.6325 11.75 38.3125 C5.06784948 41.28234467 -2.81050937 41.50068767 -9.6875 39.125 C-14.61523681 35.63952762 -18.2887684 32.09297207 -20.25 26.3125 C-21.1127318 19.05038401 -21.15702856 12.91706403 -16.6875 6.8984375 C-11.44681175 1.11659122 -7.5482363 0.09514584 0 0 Z M-6.25 11.3125 C-9.36517124 15.98525686 -8.9646102 20.84610032 -8.25 26.3125 C-6.37083474 29.69550481 -6.37083474 29.69550481 -3.25 31.3125 C0.44993918 32.0062386 2.19166155 31.58546546 5.5625 29.9375 C9.32657263 25.42061284 8.98248946 20.0442511 8.5 14.375 C7.59561157 11.88793182 6.93784211 10.82135663 4.75 9.3125 C-0.0028764 7.8659724 -2.33397375 8.26670181 -6.25 11.3125 Z " fill="#323232" transform="translate(527.25,250.6875)"/>
<path d="M0 0 C1.10021484 -0.0299707 1.10021484 -0.0299707 2.22265625 -0.06054688 C7.52549717 -0.05580373 10.43805847 0.98613513 14.5 4.4375 C14.5 5.0975 14.5 5.7575 14.5 6.4375 C15.16 6.4375 15.82 6.4375 16.5 6.4375 C19.69755883 13.40361031 22.25279553 19.20476407 19.69921875 26.828125 C18.12139445 30.60515615 16.69920184 33.7756969 13.5 36.4375 C12.84 36.4375 12.18 36.4375 11.5 36.4375 C11.5 37.0975 11.5 37.7575 11.5 38.4375 C4.81784948 41.40734467 -3.06050937 41.62568767 -9.9375 39.25 C-14.86523681 35.76452762 -18.5387684 32.21797207 -20.5 26.4375 C-21.58508543 18.32106097 -20.76110743 12.40889331 -16.3984375 5.4609375 C-11.66870093 0.41977794 -6.51468465 -0.06297147 0 0 Z M-5.5 9.4375 C-8.6771979 12.74806177 -8.95827162 15.36311926 -9 19.875 C-8.89207029 24.24124722 -8.77122942 26.0147012 -6.375 29.75 C-2.94657382 31.76233711 -1.4001417 32.25002952 2.5 31.4375 C6.54989444 28.01758914 8.36401318 26.04214453 8.8125 20.75 C8.73344973 15.93671714 7.45094402 13.24266465 4.5 9.4375 C0.99479313 8.26909771 -2.07794378 7.9034748 -5.5 9.4375 Z " fill="#323232" transform="translate(902.5,250.5625)"/>
<path d="M0 0 C1.13622803 0.00253784 1.13622803 0.00253784 2.29541016 0.00512695 C7.70182537 0.17950863 11.30787671 1.07103521 15.30859375 4.9375 C15.99115234 5.741875 15.99115234 5.741875 16.6875 6.5625 C17.326875 7.284375 17.96625 8.00625 18.625 8.75 C21.83948815 17.25893921 20.77719605 24.94644186 17.6875 33.25 C13.82075125 37.72092824 8.65314806 40.12840377 2.83203125 40.98046875 C-4.42478148 41.19066608 -9.31858503 39.94402327 -15.0625 35.375 C-19.34956876 30.01616405 -20.86052882 24.56953388 -20.6015625 17.73046875 C-19.85218227 12.11011705 -17.14789594 7.62350746 -13.3125 3.5625 C-9.08654408 0.35202332 -5.15715564 -0.01635223 0 0 Z M-6.3125 11.5625 C-9.22346808 16.60817801 -9.69557488 19.92381012 -8.3125 25.5625 C-7.04013814 28.92517063 -6.43820193 29.47869871 -3.3125 31.5625 C2.02218429 31.94714895 2.02218429 31.94714895 6.6875 29.5625 C9.04180729 24.87132474 10.36739659 20.21187789 8.6875 15.125 C7.06981646 11.67347692 5.2903605 10.0036442 1.6875 8.5625 C-2.05518873 8.5625 -3.36205261 9.27590327 -6.3125 11.5625 Z " fill="#323232" transform="translate(654.3125,250.4375)"/>
<path d="M0 0 C0.75539063 -0.01611328 1.51078125 -0.03222656 2.2890625 -0.04882812 C7.94279182 -0.0537702 10.94918 1.21711818 15.42578125 4.72265625 C20.31317364 10.0646898 20.49337267 15.79414118 20.40771484 22.72119141 C20.14386332 27.32947826 19.58408731 30.5789765 16.5625 34.25 C10.35410872 39.67925054 4.51042317 40.82939805 -3.5703125 40.59765625 C-9.72467306 39.97193435 -13.48038089 36.94393894 -17.375 32.3125 C-20.56155705 26.70855485 -21.23996481 21.61713237 -20.375 15.3125 C-18.70496211 9.56613306 -16.51530189 5.60756532 -11.375 2.3125 C-7.55898858 -0.23150761 -4.42085144 -0.01866914 0 0 Z M-5.375 10.3125 C-8.50943814 14.7176563 -10.1973715 17.79086278 -9.375 23.3125 C-7.7835808 27.25315706 -6.94391712 28.93322192 -3.375 31.3125 C1.6849951 31.86656809 1.6849951 31.86656809 6 29.5 C9.23876089 25.14012957 9.12018489 20.53028149 8.625 15.3125 C7.21228443 11.62374267 6.28533813 10.64266907 2.75 8.875 C-0.93983495 8.21082971 -2.24508527 8.25334557 -5.375 10.3125 Z " fill="#323232" transform="translate(814.375,250.6875)"/>
<path d="M0 0 C2.7787457 2.53942789 3.71947881 4.45968428 4.1328125 8.1796875 C3.9471875 9.4790625 3.9471875 9.4790625 3.7578125 10.8046875 C0.7878125 10.8046875 -2.1821875 10.8046875 -5.2421875 10.8046875 C-5.5721875 9.8146875 -5.9021875 8.8246875 -6.2421875 7.8046875 C-10.95818568 6.87998197 -13.91484359 6.57544973 -18.2421875 8.8046875 C-15.56608269 12.35936256 -11.92218888 12.87301892 -7.8046875 13.8046875 C-2.57754723 14.99427776 1.75590871 16.0020222 5.0078125 20.5546875 C6.55264227 25.18917682 6.30367298 28.66929771 4.1953125 33.0546875 C0.25448557 37.50074865 -2.84132507 38.60345107 -8.59765625 39.0859375 C-15.98762397 39.27282815 -20.78087418 38.72761692 -27.0546875 34.6171875 C-29.03491602 31.59473344 -28.95014018 28.36766476 -29.2421875 24.8046875 C-25.9421875 24.8046875 -22.6421875 24.8046875 -19.2421875 24.8046875 C-18.5821875 26.1246875 -17.9221875 27.4446875 -17.2421875 28.8046875 C-13.6121875 28.8046875 -9.9821875 28.8046875 -6.2421875 28.8046875 C-6.2421875 27.4846875 -6.2421875 26.1646875 -6.2421875 24.8046875 C-7.49515625 24.41796875 -8.748125 24.03125 -10.0390625 23.6328125 C-11.6903095 23.10741573 -13.34134001 22.58133823 -14.9921875 22.0546875 C-15.8171875 21.80203125 -16.6421875 21.549375 -17.4921875 21.2890625 C-25.59598611 18.67493392 -25.59598611 18.67493392 -28.2421875 14.8046875 C-29.10296326 11.05416453 -28.97945084 7.57478415 -28.2421875 3.8046875 C-26.11026058 0.45347362 -23.33977602 -0.94951451 -19.46875 -1.81640625 C-13.18530543 -2.5542926 -5.72217713 -3.05049861 0 0 Z " fill="#323232" transform="translate(1042.2421875,252.1953125)"/>
<path d="M0 0 C0.74701172 -0.02449219 1.49402344 -0.04898438 2.26367188 -0.07421875 C7.64247474 -0.10255309 10.57325236 0.85597738 14.6875 4.375 C14.6875 5.035 14.6875 5.695 14.6875 6.375 C15.6775 6.705 16.6675 7.035 17.6875 7.375 C19.64292188 10.35959129 19.6875 11.63914791 19.6875 15.375 C15.7275 15.375 11.7675 15.375 7.6875 15.375 C7.6875 14.385 7.6875 13.395 7.6875 12.375 C7.0275 12.375 6.3675 12.375 5.6875 12.375 C5.3575 11.715 5.0275 11.055 4.6875 10.375 C1.13057323 9.52443055 -0.80520578 9.20590193 -4.3125 10.375 C-4.6425 11.035 -4.9725 11.695 -5.3125 12.375 C-5.9725 12.375 -6.6325 12.375 -7.3125 12.375 C-8.09816473 20.93406331 -8.09816473 20.93406331 -5.1875 28.6875 C-1.83533633 30.65507433 -0.13224849 31.03930408 3.6875 30.375 C6.24699546 28.52157225 6.66668798 27.43743607 7.6875 24.375 C11.6475 24.375 15.6075 24.375 19.6875 24.375 C18.47437819 30.44060904 16.47845851 34.40534867 11.6875 38.375 C6.09158136 41.17295932 -0.20280569 40.91285479 -6.3125 40.375 C-12.2711238 38.31656632 -15.98290413 34.66740668 -19.125 29.25 C-21.20293645 23.76854696 -21.31730295 17.61629984 -19.5859375 12.03125 C-15.64022342 3.43408437 -9.20599971 0.01564316 0 0 Z " fill="#323232" transform="translate(991.3125,250.625)"/>
<path d="M0 0 C10.56 0 21.12 0 32 0 C32 10.15714286 32 10.15714286 28.625 14.0625 C27.99851562 14.81660156 27.37203125 15.57070313 26.7265625 16.34765625 C25 18 25 18 23 18 C23 18.99 23 19.98 23 21 C22.34 21 21.68 21 21 21 C20.7525 21.53625 20.505 22.0725 20.25 22.625 C18.71544482 25.54065484 16.82764268 28.25853598 15 31 C20.94 31 26.88 31 33 31 C33 33.97 33 36.94 33 40 C21.78 40 10.56 40 -1 40 C-1 32.12565668 -1 32.12565668 1.95703125 28.51953125 C2.57513672 27.74802734 3.19324219 26.97652344 3.83007812 26.18164062 C4.48427734 25.39982422 5.13847656 24.61800781 5.8125 23.8125 C6.77639648 22.62237305 6.77639648 22.62237305 7.75976562 21.40820312 C8.95676347 19.9308721 10.16081735 18.45920877 11.37426758 16.99536133 C12.96863222 15.0384996 14.48551318 13.01931575 16 11 C10.72 10.67 5.44 10.34 0 10 C0 6.7 0 3.4 0 0 Z " fill="#323232" transform="translate(599,251)"/>
<path d="M0 0 C0 4.62 0 9.24 0 14 C2.97 14 5.94 14 9 14 C9 16.64 9 19.28 9 22 C6.03 22 3.06 22 0 22 C0.11353223 25.2924348 0.24028336 28.58342332 0.375 31.875 C0.4059375 32.81214844 0.436875 33.74929688 0.46875 34.71484375 C0.50742187 35.61074219 0.54609375 36.50664062 0.5859375 37.4296875 C0.6173584 38.25710449 0.6487793 39.08452148 0.68115234 39.93701172 C0.82599137 42.21986085 0.82599137 42.21986085 3 44 C4.65 44 6.3 44 8 44 C8 47.3 8 50.6 8 54 C6.29395413 54.1366051 4.5846456 54.23271654 2.875 54.3125 C1.44800781 54.39951172 1.44800781 54.39951172 -0.0078125 54.48828125 C-3.19259857 53.96857073 -5.43631687 53.17573596 -7.84423828 50.96801758 C-10.56191933 46.34038198 -9.58393194 40.36526207 -9.375 35.1875 C-9.33439453 33.28967773 -9.33439453 33.28967773 -9.29296875 31.35351562 C-9.22233697 28.2339453 -9.12373646 25.11784159 -9 22 C-10.98 22 -12.96 22 -15 22 C-15 19.36 -15 16.72 -15 14 C-13.02 14 -11.04 14 -9 14 C-9 10.37 -9 6.74 -9 3 C-2.25 0 -2.25 0 0 0 Z " fill="#323232" transform="translate(940,237)"/>
<path d="M0 0 C11.52164009 1.92710706 11.52164009 1.92710706 17 4 C16.48744623 8.10043018 14.98042145 11.1698654 13.09765625 14.7734375 C11.96011248 17.08091062 11.03729302 19.40771087 10.125 21.8125 C7.91861582 27.48732011 5.01210854 32.7187697 2 38 C-3.95507399 37.6083965 -8.62819824 36.62875405 -14 34 C-13.0138923 30.63079869 -11.90088399 27.83117377 -10.1171875 24.79296875 C-7.89275236 20.96946807 -6.36007136 17.03162832 -4.875 12.875 C-1.68935644 4.13490099 -1.68935644 4.13490099 0 0 Z " fill="#323232" transform="translate(786,89)"/>
<path d="M0 0 C3.3 0 6.6 0 10 0 C10.33 0.99 10.66 1.98 11 3 C11.61875 2.505 12.2375 2.01 12.875 1.5 C17.26029741 -0.60494276 21.21713261 -0.25075227 26 0 C27.13643966 3.40931897 26.86747764 4.00335456 25.5625 7.1875 C25.13130859 8.26064453 25.13130859 8.26064453 24.69140625 9.35546875 C24.34916016 10.16951172 24.34916016 10.16951172 24 11 C22.63875 10.9690625 22.63875 10.9690625 21.25 10.9375 C17.48922425 10.92097872 17.48922425 10.92097872 14 12 C12.25161539 15.5594085 11.71798797 18.58002553 11.5859375 22.51953125 C11.52792969 24.0519043 11.52792969 24.0519043 11.46875 25.61523438 C11.42234375 27.19788086 11.42234375 27.19788086 11.375 28.8125 C11.31699219 30.42415039 11.31699219 30.42415039 11.2578125 32.06835938 C11.16381762 34.71196539 11.08083151 37.35595876 11 40 C7.37 40 3.74 40 0 40 C0 26.8 0 13.6 0 0 Z " fill="#323232" transform="translate(552,251)"/>
<path d="M0 0 C1.20092773 1.48364258 1.20092773 1.48364258 2.18359375 3.39453125 C2.55170166 4.09763428 2.91980957 4.8007373 3.29907227 5.52514648 C3.67475342 6.27997314 4.05043457 7.0347998 4.4375 7.8125 C4.82929443 8.57699463 5.22108887 9.34148926 5.62475586 10.12915039 C14 26.68035188 14 26.68035188 14 31 C12.08717875 31.84212256 10.16957527 32.67338864 8.25 33.5 C7.18265625 33.9640625 6.1153125 34.428125 5.015625 34.90625 C2 36 2 36 -2 36 C-2.21914063 35.42894531 -2.43828125 34.85789063 -2.6640625 34.26953125 C-6.05112382 25.60911836 -9.60430588 16.87690893 -14.375 8.875 C-16 6 -16 6 -16 3 C-14.08802961 2.29954544 -12.17019565 1.615081 -10.25 0.9375 C-9.18265625 0.55464844 -8.1153125 0.17179687 -7.015625 -0.22265625 C-3.94019377 -1.01541637 -2.87751314 -1.12374119 0 0 Z " fill="#323232" transform="translate(717,91)"/>
<path d="M0 0 C3.3 0 6.6 0 10 0 C10 13.2 10 26.4 10 40 C6.7 40 3.4 40 0 40 C0 26.8 0 13.6 0 0 Z " fill="#323232" transform="translate(957,251)"/>
<path d="M0 0 C3.3 0 6.6 0 10 0 C10 13.2 10 26.4 10 40 C6.7 40 3.4 40 0 40 C0 26.8 0 13.6 0 0 Z " fill="#323232" transform="translate(581,251)"/>
<path d="M0 0 C1.16015625 0.10054687 1.16015625 0.10054687 2.34375 0.203125 C4.94934002 0.86396305 5.89900364 1.60712796 7.5 3.75 C8.60830525 7.37244737 8.89620566 10.69345158 7.5625 14.25 C7.211875 14.745 6.86125 15.24 6.5 15.75 C5.84 15.75 5.18 15.75 4.5 15.75 C4.5 16.41 4.5 17.07 4.5 17.75 C1.36128812 19.31935594 -1.03855822 19.10201103 -4.5 18.75 C-7.375 16.3125 -7.375 16.3125 -9.5 13.75 C-9.83 13.42 -10.16 13.09 -10.5 12.75 C-10.88126226 7.79359066 -10.63574426 4.698715 -7.5 0.75 C-4.51786685 -0.24404438 -3.05541462 -0.30554146 0 0 Z " fill="#0065FE" transform="translate(236.5,170.25)"/>
<path d="M0 0 C2.73187712 3.2377803 2.89119563 6.85333905 2.6875 11 C1.35248121 14.05147152 0.66376566 15.51186717 -2.3125 17 C-6.80779114 17.36846649 -9.25329501 17.56340691 -13.25 15.4375 C-15.98095273 12.21001041 -16.3125 10.20705309 -16.3125 6 C-15.08860426 2.396307 -14.25047345 0.58306458 -11 -1.4375 C-6.8738606 -2.30111057 -3.83497236 -1.65836643 0 0 Z " fill="#0065FE" transform="translate(311.3125,102)"/>
<path d="M0 0 C3.42156426 0.71052645 4.81183604 1.6124098 6.9375 4.40234375 C7.64093488 7.87339129 7.64093488 10.93129621 6.9375 14.40234375 C4.81183604 17.1922777 3.42156426 18.09416105 0 18.8046875 C-3.93385643 19.11015741 -5.71648273 18.63302193 -9.0625 16.40234375 C-11.28175086 13.07346746 -11.82140933 11.26297867 -11.5390625 7.33984375 C-10.06510018 1.34734121 -5.60365084 -0.43513198 0 0 Z " fill="#0065FE" transform="translate(99.0625,97.59765625)"/>
<path d="M0 0 C0.79148437 -0.02578125 1.58296875 -0.0515625 2.3984375 -0.078125 C4.625 0.25 4.625 0.25 6.42578125 1.54296875 C7.625 3.25 7.625 3.25 7.4375 6.8125 C6.625 10.25 6.625 10.25 4.625 12.25 C2.4609375 12.4453125 2.4609375 12.4453125 0 12.375 C-0.81726563 12.35695312 -1.63453125 12.33890625 -2.4765625 12.3203125 C-3.10304688 12.29710937 -3.72953125 12.27390625 -4.375 12.25 C-6.67482545 8.25834894 -6.30992352 5.75463153 -5.375 1.25 C-3.79577594 -0.32922406 -2.18056126 0.042341 0 0 Z " fill="#323232" transform="translate(961.375,236.75)"/>
<path d="M0 0 C2.09375 -0.3984375 2.09375 -0.3984375 4.5 -0.375 C5.2940625 -0.38273438 6.088125 -0.39046875 6.90625 -0.3984375 C7.5971875 -0.26695312 8.288125 -0.13546875 9 0 C11.31282587 3.46923881 11.42478586 4.92205575 11 9 C10 10.875 10 10.875 8 12 C5.14761266 12.41998341 2.93433851 12.27946081 0 12 C-2.31332486 8.53001271 -2.33957563 7.07490752 -2 3 C-1.34 2.01 -0.68 1.02 0 0 Z " fill="#323232" transform="translate(582,237)"/>
</svg>
