<?xml version="1.0" standalone="no"?><!DOCTYPE svg PUBLIC "-//W3C//DTD SVG 1.1//EN" "http://www.w3.org/Graphics/SVG/1.1/DTD/svg11.dtd"><svg t="1770030069455" class="icon" viewBox="0 0 4252 1024" version="1.1" xmlns="http://www.w3.org/2000/svg" p-id="2411" xmlns:xlink="http://www.w3.org/1999/xlink" width="830.46875" height="200"><path d="M2523.264881 214.019309l84.170492 479.337793 93.348848 14.514607-86.803044-493.8524h-90.716296zM1933.715681 707.871709l93.348848-14.514607 84.170492-479.337793h-90.716296l-86.803044 493.8524zM2275.235855 714.061762a15.866458 15.866458 0 0 1-15.795308 16.008759H2184.306109l-11.170556 60.90443h145.786424a47.670524 47.670524 0 0 0 47.457074-47.955124V93.704598h-91.072046zM3157.282852 633.804522a576.315292 576.315292 0 0 1-21.34501 157.170429h71.150036a643.552077 643.552077 0 0 0 18.427859-146.995974V540.740274h71.861536v183.353643a16.079908 16.079908 0 0 1-16.079908 16.008759h-32.088666l-9.534105 51.014576h77.55354a48.097424 48.097424 0 0 0 48.239724-47.955125V93.704598h-208.185006z m68.090585-489.085349h71.861536V295.27265h-71.861536z m0 201.568053h71.861536v143.296172h-71.861536zM2917.151481 633.804522a578.094043 578.094043 0 0 1-21.345011 157.170429h71.150036a638.998474 638.998474 0 0 0 18.427859-146.995974V540.740274h71.932687v183.353643a16.079908 16.079908 0 0 1-16.079909 16.008759H3009.646527l-9.534104 51.014576h77.553539a48.097424 48.097424 0 0 0 48.239724-47.955125V93.704598H2917.151481z m68.090584-489.085349h71.932687V295.27265h-71.648087z m0 201.568053h71.932687v143.296172h-71.648087zM3465.006759 463.684785V170.760087h135.967719v192.105097a16.079908 16.079908 0 0 1-16.079909 16.008758h-43.401522l-9.462954 51.014576h88.866395a48.097424 48.097424 0 0 0 48.168574-47.955124V119.674361h-135.825419l6.616954-25.969763H3472.121762l-7.115003 25.969763h-68.090585v395.025h211.813658v84.597393h-202.208403l-9.462955 51.014576h211.813658v73.640287A16.008758 16.008758 0 0 1 3593.076824 739.960376h-106.369304l-9.534105 51.014575H3628.651842a48.097424 48.097424 0 0 0 48.168574-47.955124V463.684785z" fill="#040000" p-id="2412"></path><path d="M3548.252301 219.284411h-57.489229l26.538963 102.811802h57.560379l-26.610113-102.811802zM1578.819301 814.454463q-138.03107-162.862433-276.20444-325.796015a36.926869 36.926869 0 0 0-31.875216-15.866458c-105.159753-7.613054-203.417953-11.028256-309.289207-18.499009a7.115004 7.115004 0 0 1-6.190053-6.688104v-10.672505a7.115004 7.115004 0 0 1 6.190053-6.688104h0.49805c105.444354-7.115004 203.275653-10.885956 307.866206-18.427859h1.351851a36.784569 36.784569 0 0 0 30.879116-16.008758c91.000896-107.151954 275.91984-326.009465 275.91984-326.009466 12.166656-14.230007 5.692003-29.954165-12.949307-30.096465h-102.029152a67.592534 67.592534 0 0 0-37.709519 9.605255c-165.210384 86.945344-417.152662 221.276612-581.509245 310.143007h-0.4269a23.052612 23.052612 0 0 0-15.083808 25.044813v113.840058a23.052612 23.052612 0 0 0 15.083808 25.044813c158.806881 85.878094 418.575662 224.549514 581.722695 310.641057a67.094484 67.094484 0 0 0 37.709519 9.676405c29.598415 0.49805 68.802085 0.5692 102.242602 0 19.13936 0 25.614013-16.293358 13.305057-30.807965M51.512626 814.454463q138.03107-162.862433 276.20444-325.796015a36.855719 36.855719 0 0 1 31.875217-15.866458c105.159753-7.613054 203.346803-11.028256 309.289206-18.499009a7.115004 7.115004 0 0 0 6.190054-6.688104v-10.672505a7.115004 7.115004 0 0 0-6.190054-6.688104H668.810339c-105.444354-7.115004-203.275653-10.885956-307.866206-18.427859h-1.35185a36.784569 36.784569 0 0 1-31.804067-15.866458C236.78732 288.371096 51.868376 69.513585 51.868376 69.513585c-12.166656-14.230007-5.692003-29.954165 12.949307-30.096465h102.029152a67.592534 67.592534 0 0 1 37.709519 9.605255c165.210384 86.945344 417.152662 221.276612 581.509245 310.143007h0.4269a23.052612 23.052612 0 0 1 15.083808 25.044813v113.840058a23.052612 23.052612 0 0 1-15.083808 25.044812c-158.23768 87.301094-418.006462 225.972515-581.153495 312.064059a66.738734 66.738734 0 0 1-37.638369 9.676405c-29.598415 0.49805-68.802085 0.5692-102.242602 0-19.13936 0-25.614013-16.293358-13.305057-30.807966" fill="#040000" p-id="2413"></path></svg>